<?xml version="1.0" encoding="UTF-8" standalone="no"?>
<!DOCTYPE svg PUBLIC "-//W3C//DTD SVG 20010904//EN"
              "http://www.w3.org/TR/2001/REC-SVG-20010904/DTD/svg10.dtd">

<svg xmlns="http://www.w3.org/2000/svg"
     width="180.6mm" height="180.6mm"
     viewBox="0 0 512 512">
  <path id="Selection"
        fill="#000000" stroke="black" stroke-width="1"
        d="M 164.00,179.00
           C 164.00,179.00 170.58,147.00 170.58,147.00
             170.58,147.00 185.20,80.00 185.20,80.00
             186.83,71.98 188.29,56.44 196.02,52.45
             199.19,50.81 202.54,51.01 206.00,51.00
             206.00,51.00 306.00,51.00 306.00,51.00
             309.00,51.00 312.16,50.84 315.00,52.01
             324.07,55.73 324.87,71.25 326.88,80.00
             326.88,80.00 339.65,139.00 339.65,139.00
             339.65,139.00 348.00,179.00 348.00,179.00
             348.00,179.00 373.00,179.00 373.00,179.00
             375.52,179.00 378.60,178.89 381.00,179.65
             389.98,182.48 390.92,193.26 393.34,201.00
             393.34,201.00 410.00,259.00 410.00,259.00
             410.00,259.00 419.58,292.00 419.58,292.00
             420.48,295.16 422.28,303.40 424.51,305.40
             427.12,307.74 434.50,306.96 438.00,307.00
             450.52,307.17 451.77,314.11 456.14,324.00
             456.14,324.00 477.00,372.00 477.00,372.00
             477.00,372.00 498.28,421.00 498.28,421.00
             500.56,426.27 506.34,437.63 505.63,443.00
             504.30,453.10 496.51,454.99 488.00,455.00
             488.00,455.00 118.00,455.00 118.00,455.00
             118.00,455.00 22.00,455.00 22.00,455.00
             13.37,454.88 5.15,449.67 6.37,440.00
             6.37,440.00 20.72,405.00 20.72,405.00
             20.72,405.00 51.15,335.00 51.15,335.00
             53.90,328.60 59.62,312.43 65.04,309.01
             68.56,306.79 72.04,307.01 76.00,307.00
             76.00,307.00 95.00,307.00 95.00,307.00
             95.00,307.00 107.28,263.00 107.28,263.00
             107.28,263.00 123.02,208.00 123.02,208.00
             125.29,200.63 128.18,184.09 135.04,180.45
             138.13,178.81 141.61,179.01 145.00,179.00
             145.00,179.00 164.00,179.00 164.00,179.00 Z
           M 205.04,70.51
           C 203.19,71.38 202.40,71.46 201.16,73.34
             199.67,75.60 196.19,94.04 195.40,98.00
             195.40,98.00 184.35,152.00 184.35,152.00
             183.35,156.44 179.46,171.34 180.78,174.95
             182.75,180.36 189.31,179.99 194.00,180.00
             194.00,180.00 318.00,180.00 318.00,180.00
             322.97,179.99 329.91,180.27 331.11,173.96
             331.81,170.26 327.02,152.78 325.88,148.00
             325.88,148.00 312.35,90.00 312.35,90.00
             311.20,84.99 309.45,73.58 304.89,71.02
             302.73,69.81 299.44,70.00 297.00,70.00
             297.00,70.00 237.00,70.00 237.00,70.00
             237.00,70.00 205.04,70.51 205.04,70.51 Z
           M 150.00,198.11
           C 147.95,199.27 147.10,199.37 145.56,201.23
             143.06,204.23 139.36,220.25 138.00,225.00
             138.00,225.00 122.29,280.00 122.29,280.00
             120.93,284.72 116.08,298.82 117.61,302.95
             119.61,308.32 126.32,307.99 131.00,308.00
             131.00,308.00 388.00,308.00 388.00,308.00
             392.97,307.99 399.91,308.27 401.11,301.96
             401.88,297.87 396.80,282.85 395.42,278.00
             395.42,278.00 378.42,218.00 378.42,218.00
             377.10,213.38 374.77,201.58 370.78,199.17
             368.46,197.78 364.66,198.00 362.00,198.11
             362.00,198.11 221.00,198.11 221.00,198.11
             221.00,198.11 175.00,198.11 175.00,198.11
             175.00,198.11 150.00,198.11 150.00,198.11 Z
           M 83.02,326.11
           C 75.55,329.53 72.50,341.93 69.30,349.00
             69.30,349.00 44.15,406.00 44.15,406.00
             42.23,410.46 35.00,425.13 35.33,429.00
             35.94,436.18 43.65,435.99 49.00,436.00
             49.00,436.00 463.00,436.00 463.00,436.00
             468.35,435.99 476.06,436.18 476.67,429.00
             477.00,425.11 469.25,409.57 467.28,405.00
             467.28,405.00 441.23,346.00 441.23,346.00
             439.09,341.30 435.10,329.35 430.90,327.02
             428.70,325.80 425.46,326.00 423.00,326.11
             423.00,326.11 196.00,326.11 196.00,326.11
             196.00,326.11 122.00,326.11 122.00,326.11
             122.00,326.11 83.02,326.11 83.02,326.11 Z" />
</svg>
