<?xml version="1.0" encoding="UTF-8" standalone="no"?>
<!DOCTYPE svg PUBLIC "-//W3C//DTD SVG 20010904//EN"
              "http://www.w3.org/TR/2001/REC-SVG-20010904/DTD/svg10.dtd">

<svg xmlns="http://www.w3.org/2000/svg"
     width="180.6mm" height="180.6mm"
     viewBox="0 0 512 512">
  <path id="Selection"
        fill="black" stroke="black" stroke-width="1"
        d="M 0.00,147.00
           C 0.00,147.00 0.00,49.00 0.00,49.00
             0.04,22.20 22.20,0.04 49.00,0.00
             49.00,0.00 406.00,0.00 406.00,0.00
             406.00,0.00 463.00,0.00 463.00,0.00
             483.27,0.03 501.73,13.00 508.94,32.00
             511.45,38.62 511.99,42.00 512.00,49.00
             512.00,49.00 512.00,147.00 512.00,147.00
             512.00,147.00 0.00,147.00 0.00,147.00 Z
           M 0.00,199.00
           C 0.00,199.00 512.00,199.00 512.00,199.00
             512.00,199.00 512.00,376.00 512.00,376.00
             512.00,376.00 512.00,465.00 512.00,465.00
             511.69,490.74 488.25,511.96 463.00,512.00
             463.00,512.00 106.00,512.00 106.00,512.00
             106.00,512.00 49.00,512.00 49.00,512.00
             28.73,511.97 10.27,499.00 3.06,480.00
             0.55,473.38 0.01,470.00 0.00,463.00
             0.00,463.00 0.00,199.00 0.00,199.00 Z
           M 82.00,396.15
           C 75.26,397.41 69.22,398.99 64.33,404.18
             53.28,415.91 55.43,435.67 69.01,444.44
             76.23,449.11 83.83,448.00 92.00,448.00
             92.00,448.00 133.00,448.00 133.00,448.00
             140.56,447.99 146.05,447.07 151.96,441.79
             163.96,431.09 162.37,411.11 150.00,401.39
             144.82,397.32 137.44,396.08 131.00,396.15
             131.00,396.15 82.00,396.15 82.00,396.15 Z" />
</svg>
