<svg width="116" height="116" viewBox="0 0 116 116" fill="none" xmlns="http://www.w3.org/2000/svg">
<g clip-path="url(#clip0_29_215)">
<path d="M54.2929 0.470421C50.1117 0.764084 45.8395 1.49825 42.1827 2.55403C36.1416 4.30203 30.7788 6.78419 25.6676 10.1963C20.934 13.3567 16.5081 17.398 12.9212 21.838C5.90824 30.515 1.55922 40.8912 0.321632 51.9245C0.048944 54.3298 0 55.3296 0 58.4621C0.006992 61.6714 0.076912 63.0348 0.391552 65.524C0.83904 69.0899 1.6641 72.8446 2.75485 76.2217L2.95762 76.851L3.19534 76.3266C3.32819 76.0399 4.57976 73.1522 5.98515 69.915C7.38355 66.6707 8.55821 64.0207 8.59317 64.0207C8.6491 64.0207 22.5072 68.4326 22.8079 68.5445C22.8638 68.5655 22.8498 68.4257 22.752 68.097C22.6751 67.8383 22.5212 67.209 22.4024 66.7126C21.0809 61.0002 21.1368 55.043 22.5772 49.3934C24.1783 43.1006 27.4226 37.3462 31.9394 32.7804C36.9317 27.7322 42.9518 24.3691 49.8529 22.7679C52.8315 22.0757 56.9778 21.6841 58.6349 21.9359L59.1593 22.0198L64.7739 17.419C67.8573 14.8949 70.3745 12.7833 70.3605 12.7344C70.3465 12.6924 68.5496 9.94458 66.3541 6.63736C62.5155 0.840996 62.3616 0.617249 62.1239 0.568306C61.187 0.400497 56.2506 0.33757 54.2929 0.470421ZM57.7189 5.18303C57.7189 5.52563 57.7329 5.56759 57.8798 5.59555C57.9637 5.60954 58.2154 5.65849 58.4391 5.70043C59.2642 5.84727 59.9844 6.30174 60.4878 6.97997L60.8024 7.40648L60.292 7.70714C60.0123 7.87495 59.7466 8.00779 59.7047 8.01479C59.6627 8.01479 59.5858 7.93088 59.5299 7.83299C59.2642 7.33656 58.3762 6.75623 57.8798 6.75623H57.7189L57.7329 8.26649L57.7539 9.77677L58.537 10.0355C58.9705 10.1823 59.5019 10.413 59.7257 10.5459C60.5297 11.0423 60.9283 11.8534 60.8444 12.8393C60.7325 14.1957 59.7257 15.0977 58.1385 15.2795L57.7539 15.3214L57.7329 16.1395L57.712 16.9645H57.2295H56.7471L56.7261 16.1465L56.7051 15.3214L56.2856 15.2725C55.4326 15.1676 54.5795 14.7411 54.0412 14.1538C53.7265 13.8112 53.4888 13.4755 53.5307 13.4406C53.6216 13.3637 54.5166 12.8393 54.5656 12.8393C54.5935 12.8393 54.7124 12.9651 54.8173 13.1259C54.9291 13.2798 55.1389 13.5035 55.2857 13.6224C55.6074 13.8741 56.2786 14.1608 56.5513 14.1677H56.7401L56.7261 12.5176L56.7051 10.8675L56.1108 10.6997C54.8312 10.3361 54.0901 9.80474 53.8454 9.08456C53.6776 8.60211 53.6985 7.76308 53.8873 7.26664C54.174 6.49752 55.041 5.85426 55.9989 5.69344C56.81 5.56059 56.7401 5.60954 56.7401 5.18303V4.79847H57.2295H57.7189V5.18303Z" fill="#10B981"/>
<path d="M56.1107 6.81913C55.5583 6.98694 55.2787 7.27361 55.1318 7.79801C54.9081 8.62307 55.3346 9.12649 56.5862 9.51105L56.74 9.56V8.1616V6.75621L56.5162 6.7632C56.3904 6.7632 56.2086 6.79117 56.1107 6.81913Z" fill="#10B981"/>
<path d="M57.719 12.6365V14.1887L58.0336 14.1468C58.4741 14.0838 59.0055 13.7972 59.2293 13.4965C59.3831 13.2937 59.432 13.1469 59.453 12.7973C59.488 12.2589 59.3971 12.0072 59.0615 11.7136C58.8097 11.4898 58.2784 11.2241 57.9148 11.1332L57.719 11.0913V12.6365Z" fill="#10B981"/>
<path d="M65.0606 0.854965C65.0606 0.882935 66.8855 3.65176 69.116 7.00093C71.3464 10.3571 73.1713 13.1329 73.1713 13.1679C73.1713 13.2028 70.7311 15.2305 67.7455 17.6707L62.3127 22.1036L62.7253 22.1596C67.2701 22.7469 71.8708 24.2642 75.8283 26.4946C80.3521 29.0397 84.1557 32.3749 87.2602 36.5072C94.4689 46.1002 96.4826 58.7277 92.6161 70.1037C91.6372 72.9914 90.4625 75.4736 88.8823 77.9697C88.4209 78.6899 87.449 80.0673 87.0434 80.5707L86.8616 80.7945L87.6098 87.9403C88.0153 91.8768 88.3579 95.1001 88.3719 95.1141C88.3859 95.1281 91.6442 95.1351 95.6226 95.1351H102.845L103.083 94.9043C103.831 94.1981 106.411 90.5273 107.81 88.192C112.41 80.5008 115.081 72.1384 115.871 62.9719C116.025 61.1679 116.046 55.9869 115.906 54.2668C115.165 45.1912 112.711 37.1504 108.369 29.5711C100.342 15.5591 86.8616 5.51863 71.1576 1.86182C69.7382 1.53319 68.5426 1.30945 66.6967 1.02277C65.2983 0.806023 65.0606 0.785049 65.0606 0.854965ZM98.2866 78.8227C98.2586 79.6128 98.2796 79.5849 97.6992 79.6338C97.1049 79.6828 96.4756 79.9624 96.1191 80.333L95.8813 80.5777L97.2168 81.4937C97.951 81.9971 98.5802 82.4096 98.6222 82.4096C98.6641 82.4096 98.9228 82.2208 99.1955 81.9831C99.4752 81.7524 99.9367 81.4447 100.223 81.3049C100.902 80.9693 101.447 80.9483 102.069 81.235C102.608 81.4867 103.181 82.0391 103.377 82.5005C103.691 83.2207 103.621 84.1646 103.202 84.9967C103.104 85.1855 103.027 85.3742 103.027 85.4162C103.027 85.4512 103.153 85.57 103.307 85.6679C103.461 85.7728 103.587 85.8847 103.587 85.9126C103.587 86.0525 103.076 86.7377 102.999 86.6957C102.957 86.6748 102.824 86.5769 102.699 86.493C102.58 86.4021 102.461 86.3252 102.44 86.3252C102.419 86.3252 102.209 86.5139 101.985 86.7377C101.335 87.3879 100.377 87.7935 99.4892 87.7935C99.1885 87.7935 99.1815 87.7865 99.1815 87.5557C99.1815 87.4299 99.2025 87.1362 99.2235 86.9055L99.2724 86.486L99.699 86.479C100.216 86.472 100.622 86.3321 101.034 86.0385C101.293 85.8497 101.468 85.6399 101.405 85.591C100.797 85.1645 98.9718 83.9479 98.9438 83.9479C98.9159 83.9479 98.6572 84.1367 98.3635 84.3744C98.0768 84.6051 97.6083 84.9128 97.3357 85.0526C96.8742 85.2903 96.7973 85.3113 96.2099 85.3113C95.6576 85.3113 95.5387 85.2833 95.2031 85.1155C94.3151 84.6471 93.7977 83.9059 93.7418 83.0109C93.6998 82.3677 93.8117 81.8643 94.1124 81.256C94.2452 80.9903 94.3501 80.7735 94.3361 80.7665C94.3291 80.7595 94.0564 80.5707 93.7278 80.347C93.3992 80.1233 93.1055 79.9135 93.0705 79.8855C93.0076 79.8296 93.511 79.0535 93.6089 79.0535C93.6439 79.0535 93.9515 79.2493 94.2941 79.487L94.9164 79.9135L95.4268 79.4241C96.182 78.7039 96.9511 78.3753 97.888 78.3613L98.3075 78.3543L98.2866 78.8227Z" fill="#F59E0B"/>
<path d="M95.154 81.6894C95.0841 81.8363 95.0211 82.1929 95.0071 82.4795C94.9722 83.1298 95.0911 83.3955 95.5735 83.7171C96.1399 84.1017 96.7272 84.0178 97.5243 83.4444C97.8319 83.2207 97.8459 83.1927 97.734 83.0948C97.6152 82.9969 95.5455 81.5846 95.3567 81.4727C95.3008 81.4447 95.2309 81.5216 95.154 81.6894Z" fill="#F59E0B"/>
<path d="M100.769 82.5145C100.468 82.6264 99.7338 83.1228 99.7618 83.1927C99.7897 83.2836 102.006 84.7799 102.055 84.7449C102.153 84.689 102.398 83.9409 102.398 83.7171C102.398 83.3745 102.118 82.8921 101.803 82.6753C101.454 82.4376 101.111 82.3886 100.769 82.5145Z" fill="#F59E0B"/>
<path d="M9.58606 66.9084C9.49516 67.1041 8.18766 70.1177 6.67739 73.5927L3.93652 79.9065L4.12531 80.354C4.23019 80.5987 4.34206 80.8015 4.38401 80.8015C4.41897 80.8015 4.50987 80.9483 4.59377 81.1301C7.11788 86.9894 10.2223 91.9187 14.4245 96.7432C15.5223 98.0018 18.4379 100.924 19.6475 101.98C24.8426 106.511 30.597 110.007 36.9737 112.503C40.8193 114.013 45.5599 115.258 49.7691 115.866C54.8383 116.594 61.159 116.594 66.2282 115.866C71.0667 115.167 76.4855 113.657 80.6877 111.832C88.3929 108.483 94.8045 104.008 100.349 98.0927L101.174 97.2117L93.8326 97.2397L86.491 97.2676L85.7779 90.3455C85.3863 86.5349 85.0647 83.3326 85.0647 83.2207C85.0577 83.0319 84.9738 83.0948 83.9879 84.0947C78.0237 90.1218 70.4164 93.7786 61.8093 94.7645C60.2291 94.9463 55.7193 94.9463 54.188 94.7645C49.5593 94.2261 45.5529 93.0445 41.5605 91.0377C33.8063 87.1572 27.6184 80.5218 24.3042 72.5509C23.6749 71.0476 23.633 70.9637 23.3743 70.8798C15.1097 68.2508 9.90769 66.5937 9.83777 66.5727C9.78183 66.5518 9.68395 66.6776 9.58606 66.9084ZM16.662 74.8932C17.1934 75.054 17.8366 75.5225 18.2352 76.0469C18.4239 76.2986 18.6057 76.5084 18.6337 76.5224C18.6687 76.5363 18.9763 76.3825 19.3259 76.1937C19.6755 75.998 19.9902 75.8371 20.0321 75.8371C20.095 75.8371 20.5565 76.6692 20.5076 76.7111C20.4936 76.7181 20.1789 76.8929 19.8014 77.1027C19.284 77.3824 19.1301 77.5012 19.1651 77.5782C19.4867 78.3473 19.6056 79.2353 19.4797 79.9065C19.3888 80.368 19.0742 81.1511 18.9833 81.1511C18.8854 81.1511 17.9345 80.5847 17.9345 80.5288C17.9345 80.5008 17.9974 80.347 18.0743 80.1862C18.3191 79.6897 18.389 79.1793 18.2911 78.6479C18.2422 78.3892 18.1862 78.1375 18.1582 78.0956C18.1233 78.0466 17.6408 78.2704 16.7109 78.7808C15.9418 79.2003 15.2845 79.5499 15.2426 79.5639C15.2076 79.5779 15.2356 79.8296 15.3125 80.1792C15.4034 80.5637 15.4523 81.0182 15.4523 81.5007C15.4523 82.123 15.4314 82.2768 15.2985 82.5285C14.7741 83.5074 13.4037 84.0527 12.3479 83.7031C11.8654 83.5423 11.2362 83.0669 10.9075 82.6124C10.7607 82.4026 10.6209 82.2069 10.5929 82.1789C10.5649 82.1509 10.4041 82.2069 10.2363 82.3047C10.0685 82.3956 9.90769 82.4795 9.87972 82.4795C9.8098 82.4795 9.40427 81.7733 9.40427 81.6615C9.40427 81.6125 9.53711 81.5077 9.70492 81.4238C9.86574 81.3398 10.0126 81.2629 10.0196 81.2559C10.0335 81.242 9.97062 81.0322 9.87972 80.7875C9.74687 80.4169 9.71891 80.2141 9.71891 79.5079C9.71891 78.6899 9.7259 78.6549 9.96363 78.1655L10.2083 77.6621L10.7537 77.9907C11.0474 78.1725 11.2781 78.3473 11.2641 78.3892C10.9565 79.0744 10.8726 79.3401 10.8726 79.7247C10.8726 80.0813 10.9635 80.5428 11.0544 80.6546C11.0684 80.6756 13.6344 79.3052 13.7253 79.2283C13.7393 79.2213 13.6764 78.8857 13.5995 78.4871C13.2359 76.7391 13.6065 75.7113 14.8021 75.096C15.4174 74.7814 16.0467 74.7114 16.662 74.8932Z" fill="#DC2626"/>
<path d="M15.6272 76.2077C15.2426 76.3335 14.886 76.7391 14.7951 77.1586C14.7252 77.4872 14.7951 78.4521 14.893 78.55C14.935 78.592 17.585 77.1446 17.585 77.0817C17.585 76.9418 17.0256 76.4244 16.711 76.2846C16.3334 76.1098 16.0187 76.0818 15.6272 76.2077Z" fill="#DC2626"/>
<path d="M12.8303 80.8854C12.194 81.228 11.6556 81.5357 11.6207 81.5636C11.5507 81.6335 11.8584 82.0321 12.1381 82.2418C12.7464 82.6893 13.5784 82.5425 14.0049 81.9132C14.1588 81.6965 14.1727 81.6196 14.1378 81.0252C14.1238 80.6686 14.0818 80.347 14.0469 80.312C14.0119 80.2841 13.4665 80.5358 12.8303 80.8854Z" fill="#DC2626"/>
</g>
<defs>
<clipPath id="clip0_29_215">
<rect width="116" height="116" fill="white"/>
</clipPath>
</defs>
</svg>
