<svg width="80" height="80" viewBox="0 0 80 80" fill="none" xmlns="http://www.w3.org/2000/svg">
<g clip-path="url(#clip0_38_190)">
<circle cx="40" cy="40" r="40" fill="black"/>
<circle cx="40" cy="40" r="35" fill="white"/>
<path d="M40.95 59.49C40.41 59.49 39.96 59.31 39.6 58.95C39.27 58.59 39.105 58.155 39.105 57.645V53.37L40.005 54.225C37.905 54.195 36.015 53.925 34.335 53.415C32.655 52.875 31.245 52.23 30.105 51.48C29.685 51.21 29.385 50.865 29.205 50.445C29.025 50.025 28.965 49.605 29.025 49.185C29.115 48.765 29.295 48.405 29.565 48.105C29.835 47.805 30.165 47.625 30.555 47.565C30.945 47.505 31.395 47.625 31.905 47.925C32.835 48.525 33.99 49.065 35.37 49.545C36.78 50.025 38.49 50.265 40.5 50.265C42.12 50.265 43.44 50.055 44.46 49.635C45.51 49.215 46.275 48.645 46.755 47.925C47.265 47.205 47.52 46.365 47.52 45.405C47.52 44.625 47.34 43.95 46.98 43.38C46.65 42.81 46.095 42.33 45.315 41.94C44.535 41.52 43.5 41.175 42.21 40.905L37.575 39.915C34.845 39.315 32.805 38.325 31.455 36.945C30.135 35.565 29.475 33.75 29.475 31.5C29.475 29.73 29.895 28.155 30.735 26.775C31.605 25.395 32.805 24.3 34.335 23.49C35.895 22.68 37.71 22.215 39.78 22.095L39.105 22.725V18.63C39.105 18.12 39.27 17.685 39.6 17.325C39.96 16.965 40.41 16.785 40.95 16.785C41.46 16.785 41.895 16.965 42.255 17.325C42.615 17.685 42.795 18.12 42.795 18.63V22.725L42.03 22.095C43.41 22.125 44.88 22.41 46.44 22.95C48 23.46 49.335 24.195 50.445 25.155C50.805 25.455 51.03 25.8 51.12 26.19C51.24 26.58 51.24 26.955 51.12 27.315C51.03 27.675 50.85 27.975 50.58 28.215C50.31 28.455 49.965 28.59 49.545 28.62C49.125 28.65 48.675 28.5 48.195 28.17C47.235 27.51 46.17 26.985 45 26.595C43.86 26.205 42.495 26.01 40.905 26.01C38.805 26.01 37.14 26.505 35.91 27.495C34.68 28.485 34.065 29.775 34.065 31.365C34.065 32.565 34.44 33.54 35.19 34.29C35.94 35.01 37.2 35.565 38.97 35.955L43.695 36.945C46.575 37.575 48.705 38.55 50.085 39.87C51.465 41.19 52.155 42.945 52.155 45.135C52.155 46.845 51.72 48.36 50.85 49.68C49.98 50.97 48.78 52.005 47.25 52.785C45.75 53.535 44.01 54 42.03 54.18L42.795 53.325V57.645C42.795 58.155 42.615 58.59 42.255 58.95C41.925 59.31 41.49 59.49 40.95 59.49Z" fill="black"/>
</g>
<defs>
<clipPath id="clip0_38_190">
<rect width="80" height="80" fill="white"/>
</clipPath>
</defs>
</svg>
