<?xml version="1.0" encoding="UTF-8" standalone="no"?>
<!DOCTYPE svg PUBLIC "-//W3C//DTD SVG 20010904//EN"
              "http://www.w3.org/TR/2001/REC-SVG-20010904/DTD/svg10.dtd">

<svg xmlns="http://www.w3.org/2000/svg"
     width="180.6mm" height="180.6mm"
     viewBox="0 0 512 512">
  <path id="Selection"
        fill="#000000" stroke="black" stroke-width="1"
        d="M 234.00,0.21
           C 234.00,0.21 272.00,0.21 272.00,0.21
             288.03,0.19 312.45,5.24 328.00,9.71
             406.14,32.17 467.78,90.07 496.42,166.00
             504.15,186.49 511.74,218.15 512.00,240.00
             512.34,269.59 512.27,287.70 505.35,317.00
             492.30,372.24 458.77,423.82 414.00,458.58
             402.13,467.79 390.04,475.20 377.00,482.58
             349.15,498.31 302.08,511.95 270.00,512.00
             270.00,512.00 240.00,512.00 240.00,512.00
             222.77,511.79 198.67,506.50 182.00,501.71
             114.61,482.33 55.78,432.03 25.26,369.00
             -3.94,308.71 -8.80,234.27 13.69,171.00
             38.07,102.44 89.59,46.95 157.00,19.01
             176.56,10.90 197.06,5.36 218.00,2.27
             218.00,2.27 234.00,0.21 234.00,0.21 Z
           M 237.00,32.14
           C 204.77,36.92 189.42,39.34 159.00,53.31
             108.35,76.56 66.06,122.99 46.42,175.00
             10.47,270.25 41.61,378.98 125.00,438.57
             143.78,452.00 162.12,461.37 184.00,468.67
             200.27,474.09 224.93,479.80 242.00,480.00
             242.00,480.00 268.00,480.00 268.00,480.00
             296.21,479.96 336.26,468.07 361.00,454.69
             382.20,443.23 404.67,426.87 420.83,409.00
             439.87,387.95 455.53,363.60 465.58,337.00
             497.24,253.12 476.88,158.16 413.00,95.00
             394.68,76.89 369.69,60.33 346.00,50.15
             324.86,41.07 293.03,32.27 270.00,32.14
             270.00,32.14 237.00,32.14 237.00,32.14 Z
           M 251.00,142.00
           C 251.00,136.04 250.04,117.44 252.45,113.10
             256.33,106.12 268.01,106.33 271.98,114.02
             273.61,117.18 272.99,127.94 273.00,132.00
             273.00,134.24 272.79,137.79 274.02,139.70
             276.03,142.81 285.15,143.62 289.00,144.71
             299.04,147.55 309.41,151.38 318.00,157.44
             323.78,161.52 327.63,165.44 326.89,173.00
             326.30,179.07 321.13,183.50 315.00,182.62
             315.00,182.62 291.00,171.05 291.00,171.05
             271.60,163.94 245.82,162.85 229.04,176.67
             222.12,182.37 218.22,190.05 218.01,199.00
             217.39,225.89 242.63,228.88 263.00,233.21
             286.44,238.19 319.62,243.88 329.91,269.00
             333.27,277.21 333.10,284.37 333.00,293.00
             332.76,313.15 319.42,329.00 302.00,337.73
             296.07,340.70 290.45,342.62 284.00,344.11
             281.04,344.80 276.66,345.05 274.60,347.43
             272.69,349.63 273.01,353.26 273.00,356.00
             272.99,360.54 273.71,371.31 271.69,374.90
             267.85,381.73 256.20,381.71 252.31,374.90
             250.14,371.09 251.09,358.90 251.00,354.00
             250.80,343.49 246.91,347.35 232.00,344.54
             221.16,342.50 209.73,338.53 200.00,333.36
             195.91,331.19 191.41,328.79 188.65,324.96
             184.37,319.04 185.73,308.66 193.04,305.74
             197.59,303.92 202.04,305.81 206.00,308.00
             211.54,311.08 217.08,313.90 223.00,316.19
             231.24,319.38 244.18,321.89 253.00,322.00
             266.31,322.15 280.61,321.65 292.00,313.78
             306.43,303.81 309.40,282.93 294.99,271.53
             286.09,264.49 273.82,262.24 263.00,260.00
             241.86,255.62 213.88,251.43 199.33,234.00
             182.32,213.62 187.15,177.81 206.04,160.17
             218.16,148.85 234.69,143.32 251.00,142.00 Z" />
</svg>
