<?xml version="1.0" encoding="UTF-8" standalone="no"?>
<!DOCTYPE svg PUBLIC "-//W3C//DTD SVG 20010904//EN"
              "http://www.w3.org/TR/2001/REC-SVG-20010904/DTD/svg10.dtd">

<svg xmlns="http://www.w3.org/2000/svg"
     width="180.6mm" height="120.635mm"
     viewBox="0 0 512 342">
  <path id="Selection"
        fill="#000000" stroke="black" stroke-width="1"
        d="M 244.00,79.21
           C 244.00,79.21 257.00,79.21 257.00,79.21
             257.00,79.21 269.00,79.91 269.00,79.91
             314.56,83.10 358.54,103.93 391.00,136.00
             398.95,143.86 406.33,152.10 413.12,161.00
             418.00,167.40 421.40,170.54 420.96,179.00
             420.61,185.62 416.69,189.91 412.87,195.00
             405.09,205.40 396.78,215.70 387.00,224.28
             387.00,224.28 372.00,237.10 372.00,237.10
             335.20,264.96 295.75,276.53 250.00,276.00
             250.00,276.00 240.00,275.08 240.00,275.08
             194.91,271.48 151.82,249.81 120.00,218.00
             111.39,209.39 106.11,203.68 98.65,194.00
             94.91,189.14 91.37,185.37 91.04,179.00
             90.64,171.23 93.44,168.09 97.72,162.00
             104.06,152.98 111.22,144.78 119.00,137.00
             145.25,110.75 173.86,93.47 210.00,84.47
             210.00,84.47 234.00,80.17 234.00,80.17
             234.00,80.17 244.00,79.21 244.00,79.21 Z
           M 116.00,178.00
           C 116.00,178.00 126.17,190.00 126.17,190.00
             137.46,202.61 149.88,214.07 164.00,223.49
             214.13,256.92 276.93,261.96 331.00,234.75
             349.63,225.38 368.87,210.82 382.42,195.00
             385.53,191.37 394.96,181.80 394.22,177.00
             393.59,172.97 383.16,162.18 380.00,159.00
             365.37,144.31 351.66,132.24 333.00,122.76
             316.60,114.42 302.22,108.71 284.00,105.42
             232.61,96.14 182.98,111.53 144.00,145.85
             134.22,154.46 122.51,166.68 116.00,178.00 Z
           M 247.00,111.43
           C 268.13,108.82 290.40,116.03 304.83,132.00
             332.40,162.53 325.66,213.56 289.00,233.69
             274.68,241.55 266.80,242.18 251.00,242.00
             242.29,241.89 233.74,239.11 226.00,235.24
             196.18,220.33 182.91,185.15 194.09,154.00
             202.75,129.87 222.20,115.49 247.00,111.43 Z
           M 282.00,132.33
           C 277.70,133.36 274.38,134.63 271.39,138.10
             260.90,150.29 270.65,170.16 288.00,167.14
             301.69,164.76 306.70,148.45 298.21,138.30
             293.98,133.23 288.34,131.77 282.00,132.33 Z" />
</svg>
