<?xml version="1.0" encoding="UTF-8" standalone="no"?>
<!DOCTYPE svg PUBLIC "-//W3C//DTD SVG 20010904//EN"
              "http://www.w3.org/TR/2001/REC-SVG-20010904/DTD/svg10.dtd">

<svg xmlns="http://www.w3.org/2000/svg"
     width="180.6mm" height="180.6mm"
     viewBox="0 0 512 512">
  <path id="Selection"
        fill="#000000" stroke="black" stroke-width="1"
        d="M 93.00,446.00
           C 93.00,457.10 94.96,468.99 86.67,477.82
             75.80,489.40 56.29,488.46 46.53,475.99
             41.72,469.84 41.01,462.51 40.86,455.00
             40.86,455.00 40.86,392.00 40.86,392.00
             41.00,389.88 41.08,387.02 40.86,385.00
             40.86,385.00 26.43,356.00 26.43,356.00
             17.46,335.05 11.77,314.52 8.43,292.00
             5.40,271.61 5.59,251.48 7.09,231.00
             7.09,231.00 9.75,212.00 9.75,212.00
             10.13,209.76 11.28,204.55 10.89,202.58
             10.89,202.58 6.87,194.00 6.87,194.00
             4.88,189.44 3.48,183.91 2.61,179.00
             1.84,174.60 2.14,173.14 1.96,169.00
             1.96,169.00 1.08,160.00 1.08,160.00
             1.08,160.00 2.00,152.00 2.00,152.00
             2.00,152.00 2.00,142.00 2.00,142.00
             2.00,142.00 3.95,125.00 3.95,125.00
             5.38,112.18 5.70,98.95 17.00,90.56
             22.43,86.52 29.38,85.38 36.00,86.18
             40.46,86.72 43.00,88.62 46.00,87.66
             48.02,87.01 51.57,83.77 54.00,82.36
             59.23,79.34 63.10,78.87 69.00,79.01
             71.05,79.06 76.07,79.99 77.42,79.52
             79.70,78.73 84.07,73.88 86.00,72.04
             86.00,72.04 103.00,57.65 103.00,57.65
             121.77,43.32 142.98,31.34 165.00,22.81
             234.83,-4.24 313.59,1.37 379.00,37.86
             405.81,52.82 421.57,67.57 443.00,89.00
             446.68,71.47 469.73,67.47 482.96,77.05
             490.99,82.87 492.99,91.68 493.00,101.00
             493.00,101.00 493.00,168.00 493.00,168.00
             493.02,179.44 499.10,194.84 501.39,207.00
             505.53,228.93 506.26,244.84 506.00,267.00
             505.87,278.15 502.54,301.00 499.87,312.00
             497.31,322.53 493.02,333.22 493.00,344.00
             493.00,344.00 493.00,464.00 493.00,464.00
             492.99,470.82 492.50,476.21 488.36,482.00
             477.73,496.87 456.35,496.52 445.56,482.00
             441.43,476.45 441.01,471.61 441.00,465.00
             441.00,465.00 441.00,425.00 441.00,425.00
             413.81,452.19 392.48,469.45 357.00,485.14
             269.95,523.62 165.05,508.33 93.00,446.00 Z
           M 415.00,255.00
           C 415.00,255.00 420.75,220.00 420.75,220.00
             420.75,220.00 432.41,151.00 432.41,151.00
             432.41,151.00 436.98,124.00 436.98,124.00
             437.60,119.95 439.05,115.84 436.98,112.00
             435.01,108.13 428.37,101.50 425.28,98.00
             413.07,84.12 397.40,71.88 382.00,61.67
             316.36,18.12 225.47,12.61 155.00,47.75
             140.51,54.98 131.17,60.45 118.00,70.01
             111.50,74.73 103.67,80.50 99.00,87.00
             102.96,87.00 106.17,86.79 110.00,88.11
             132.40,95.79 128.64,125.26 132.00,144.00
             132.00,144.00 154.00,125.21 154.00,125.21
             165.81,115.91 181.92,106.74 196.00,101.42
             268.86,73.92 350.62,103.47 390.80,170.00
             401.22,187.27 407.81,205.18 411.39,225.00
             411.39,225.00 415.00,255.00 415.00,255.00 Z
           M 454.00,297.00
           C 454.00,297.00 454.00,377.00 454.00,377.00
             454.00,377.00 454.00,463.00 454.00,463.00
             454.01,466.96 453.79,470.44 456.01,473.96
             460.78,481.52 471.93,482.00 477.35,474.90
             480.22,471.14 479.99,467.44 480.00,463.00
             480.00,463.00 480.00,178.00 480.00,178.00
             480.00,178.00 480.00,100.00 480.00,100.00
             479.87,90.74 474.98,84.14 465.00,85.11
             458.37,85.76 455.12,91.04 453.68,97.00
             453.68,97.00 445.92,142.00 445.92,142.00
             445.92,142.00 425.92,260.00 425.92,260.00
             425.92,260.00 423.75,273.00 423.75,273.00
             422.31,281.68 419.76,292.78 431.00,296.35
             433.38,297.11 436.50,297.00 439.00,297.00
             439.00,297.00 454.00,297.00 454.00,297.00 Z
           M 80.00,183.00
           C 80.00,183.00 80.00,106.00 80.00,106.00
             79.88,97.41 75.15,91.32 66.00,92.11
             56.94,92.88 54.10,99.98 54.00,108.00
             54.00,108.00 54.00,183.00 54.00,183.00
             43.37,180.50 41.13,176.65 41.00,166.00
             40.79,148.21 41.70,138.54 44.13,121.00
             45.55,110.79 45.50,97.87 31.00,99.11
             26.77,99.47 23.30,101.42 21.01,105.04
             17.88,109.98 16.54,129.27 15.72,136.00
             14.37,146.94 13.77,158.04 14.83,169.00
             16.64,187.65 20.20,199.96 40.00,206.64
             45.62,208.54 48.12,208.95 54.00,209.00
             54.00,209.00 54.00,455.00 54.00,455.00
             54.01,460.07 53.87,464.63 57.56,468.66
             63.27,474.91 73.61,474.04 78.26,466.96
             80.27,463.90 79.99,460.48 80.00,457.00
             80.00,457.00 80.00,219.00 80.00,219.00
             80.00,216.80 79.79,213.17 81.02,211.31
             82.84,208.57 91.39,207.92 95.00,206.53
             101.74,203.95 107.07,200.53 111.79,195.00
             121.92,183.11 120.17,162.78 120.00,148.00
             120.00,148.00 117.28,122.00 117.28,122.00
             116.69,117.48 116.27,111.17 114.52,107.01
             112.08,101.22 107.20,98.54 101.00,99.11
             94.62,99.70 90.09,104.71 89.41,111.00
             89.41,111.00 91.72,129.00 91.72,129.00
             93.17,140.01 94.02,150.90 94.00,162.00
             93.98,174.33 93.31,180.27 80.00,183.00 Z
           M 248.00,104.28
           C 248.00,104.28 220.00,107.89 220.00,107.89
             187.34,115.41 157.19,133.48 136.45,160.00
             135.03,161.81 133.51,163.81 132.72,166.00
             131.49,169.46 132.38,180.50 126.69,193.00
             118.71,210.52 111.25,205.50 107.89,220.00
             105.96,228.31 104.37,242.43 104.04,251.00
             103.84,256.05 104.60,257.61 104.91,262.00
             108.58,314.43 136.51,358.51 183.00,383.69
             203.90,395.01 227.51,399.58 251.00,400.91
             255.29,401.15 257.12,400.35 261.00,400.09
             279.32,398.83 297.36,395.42 314.00,387.24
             314.00,387.24 329.00,379.55 329.00,379.55
             365.06,358.09 389.41,322.97 397.60,282.00
             398.84,275.79 401.24,256.77 400.91,251.00
             400.03,235.51 397.98,219.75 392.92,205.00
             376.18,156.18 338.05,121.07 288.00,108.63
             278.64,106.30 257.30,103.42 248.00,104.28 Z
           M 42.00,342.00
           C 42.00,342.00 42.00,249.00 42.00,249.00
             42.00,249.00 42.00,227.00 42.00,227.00
             41.99,225.04 42.14,222.17 40.98,220.51
             39.31,218.12 30.94,215.69 28.00,215.00
             28.00,215.00 25.00,245.00 25.00,245.00
             24.96,270.07 25.06,286.14 31.13,311.00
             33.06,318.90 37.51,335.80 42.00,342.00 Z
           M 94.00,220.00
           C 94.00,220.00 92.00,220.00 92.00,220.00
             92.00,220.00 93.00,226.00 93.00,226.00
             93.00,226.00 94.00,220.00 94.00,220.00 Z
           M 93.00,279.00
           C 91.24,283.43 92.00,292.90 92.00,298.00
             92.00,298.00 92.00,337.00 92.00,337.00
             92.00,337.00 92.00,411.00 92.00,411.00
             92.02,422.54 95.71,423.41 104.00,430.83
             113.58,439.41 128.78,450.15 140.00,456.57
             196.33,488.82 266.27,496.40 328.00,476.00
             362.16,464.71 392.99,445.73 418.99,420.91
             423.16,416.92 439.55,398.63 441.27,394.00
             442.14,391.65 442.00,388.51 442.00,386.00
             442.00,386.00 442.00,309.00 442.00,309.00
             430.74,309.00 423.26,308.79 415.53,298.99
             412.75,295.47 412.02,292.69 410.00,289.00
             410.00,289.00 400.57,316.00 400.57,316.00
             392.86,334.05 379.98,353.17 365.91,366.83
             351.19,381.13 333.88,393.02 315.00,401.13
             254.78,426.99 185.72,412.12 139.09,366.83
             123.30,351.50 108.64,328.70 101.05,308.00
             101.05,308.00 93.00,279.00 93.00,279.00 Z" />
</svg>
