<svg width="80" height="80" viewBox="0 0 80 80" fill="none" xmlns="http://www.w3.org/2000/svg">
<g clip-path="url(#clip0_31_24)">
<path d="M36.8284 8.48529C35.2663 6.92319 35.2663 4.39053 36.8284 2.82843C38.3905 1.26634 40.9232 1.26634 42.4853 2.82843L79.9884 40.3315L74.3315 45.9884L36.8284 8.48529Z" fill="black"/>
<path d="M37.5031 2.82843C39.0652 1.26633 41.5978 1.26633 43.1599 2.82843C44.722 4.39052 44.722 6.92318 43.1599 8.48528L5.65684 45.9884L-1.41306e-05 40.3315L37.5031 2.82843Z" fill="black"/>
<path d="M0 40H8L8 76C8 78.2091 6.20914 80 4 80C1.79086 80 0 78.2091 0 76L0 40Z" fill="black"/>
<path d="M72 40H80V76C80 78.2091 78.2091 80 76 80C73.7909 80 72 78.2091 72 76V40Z" fill="black"/>
<path d="M32 63C32 58.5817 35.5817 55 40 55C44.4183 55 48 58.5817 48 63V80H32V63Z" fill="black"/>
</g>
<defs>
<clipPath id="clip0_31_24">
<rect width="80" height="80" fill="white"/>
</clipPath>
</defs>
</svg>
