<?xml version="1.0" encoding="UTF-8" standalone="no"?>
<!DOCTYPE svg PUBLIC "-//W3C//DTD SVG 20010904//EN"
              "http://www.w3.org/TR/2001/REC-SVG-20010904/DTD/svg10.dtd">

<svg xmlns="http://www.w3.org/2000/svg"
     width="180.6mm" height="180.6mm"
     viewBox="0 0 512 512">
  <path id="Selection"
        fill="#000000" stroke="black" stroke-width="1"
        d="M 383.00,95.00
           C 379.81,81.83 387.97,68.49 401.00,64.79
             404.13,63.90 406.80,64.00 410.00,64.00
             410.00,64.00 508.00,64.00 508.00,64.00
             508.00,64.00 508.00,162.00 508.00,162.00
             507.99,165.28 508.10,167.76 507.24,171.00
             504.11,182.80 492.13,190.98 480.00,189.82
             471.24,188.99 467.87,185.58 461.00,181.00
             459.41,189.46 454.48,193.42 454.56,197.00
             454.61,199.16 459.45,207.24 460.69,210.00
             463.51,216.31 464.15,222.17 463.99,229.00
             463.87,233.86 462.57,239.52 460.66,244.00
             459.58,246.55 457.22,250.27 457.33,253.00
             457.42,255.22 460.33,260.32 461.30,263.00
             463.72,269.70 464.08,272.98 464.00,280.00
             463.93,286.20 462.38,292.43 459.63,298.00
             458.24,300.82 454.21,306.17 454.40,309.00
             454.56,311.43 458.33,316.40 459.63,319.00
             462.40,324.55 463.93,330.82 464.00,337.00
             464.20,354.76 457.27,364.87 445.00,377.00
             428.60,393.20 399.16,406.51 377.00,412.86
             309.22,432.28 233.95,434.47 165.00,419.79
             149.03,416.39 133.16,411.66 118.00,405.60
             118.00,405.60 103.00,399.11 103.00,399.11
             101.05,398.19 96.77,395.53 95.00,395.30
             90.30,394.71 80.33,405.67 77.00,409.00
             77.00,409.00 56.00,429.17 56.00,429.17
             48.18,436.24 43.58,441.92 32.00,441.92
             13.00,441.92 0.44,422.20 8.18,405.00
             11.72,397.15 16.10,394.41 22.00,388.91
             22.00,388.91 38.00,373.00 38.00,373.00
             40.97,370.04 51.94,360.53 53.19,358.00
             54.72,354.91 51.11,344.80 51.02,340.00
             50.78,328.14 55.43,316.98 63.00,308.00
             52.76,299.31 49.24,281.73 52.24,269.00
             54.17,260.77 57.33,256.82 57.76,254.00
             58.28,250.64 55.32,246.31 54.06,243.00
             51.87,237.23 50.78,231.18 51.04,225.00
             51.30,218.78 53.24,212.60 55.89,207.00
             57.16,204.31 60.60,199.62 60.60,197.00
             60.60,197.00 53.70,182.00 53.70,182.00
             49.77,170.92 50.17,159.78 54.87,149.00
             67.22,120.71 109.64,101.02 138.00,92.86
             165.33,85.00 191.61,79.90 220.00,77.91
             220.00,77.91 230.00,76.96 230.00,76.96
             230.00,76.96 242.00,76.96 242.00,76.96
             242.00,76.96 252.00,76.00 252.00,76.00
             252.00,76.00 263.00,76.00 263.00,76.00
             263.00,76.00 283.00,77.00 283.00,77.00
             300.11,77.03 326.94,81.19 344.00,84.60
             354.54,86.71 373.48,90.95 383.00,95.00 Z
           M 495.00,77.00
           C 495.00,77.00 412.00,77.00 412.00,77.00
             407.15,77.01 403.07,76.82 399.22,80.39
             392.89,86.27 394.24,97.52 402.04,101.43
             406.22,103.53 413.28,103.00 418.00,103.00
             418.00,103.00 450.00,103.00 450.00,103.00
             450.00,103.00 428.99,125.00 428.99,125.00
             428.99,125.00 378.01,176.00 378.01,176.00
             378.01,176.00 368.96,186.00 368.96,186.00
             368.96,186.00 318.00,237.00 318.00,237.00
             318.00,237.00 307.96,248.00 307.96,248.00
             307.96,248.00 277.00,279.00 277.00,279.00
             274.28,273.25 266.62,265.95 262.17,261.00
             262.17,261.00 237.16,233.00 237.16,233.00
             232.23,227.47 227.41,220.51 219.00,221.23
             212.80,221.75 208.15,226.87 204.00,231.00
             204.00,231.00 181.00,253.00 181.00,253.00
             181.00,253.00 88.00,343.00 88.00,343.00
             88.00,343.00 73.00,357.04 73.00,357.04
             73.00,357.04 54.00,375.96 54.00,375.96
             54.00,375.96 36.00,393.00 36.00,393.00
             31.06,397.94 19.78,407.14 19.11,414.00
             17.88,426.62 30.75,433.28 41.00,425.58
             41.00,425.58 54.00,413.17 54.00,413.17
             54.00,413.17 80.00,388.04 80.00,388.04
             80.00,388.04 99.00,370.00 99.00,370.00
             99.00,370.00 117.00,352.96 117.00,352.96
             117.00,352.96 136.00,334.04 136.00,334.04
             136.00,334.04 146.00,324.99 146.00,324.99
             146.00,324.99 220.00,253.00 220.00,253.00
             222.54,258.36 230.58,266.23 234.84,271.00
             234.84,271.00 260.83,300.00 260.83,300.00
             266.79,306.62 269.96,312.35 280.00,310.79
             287.64,309.60 294.23,300.45 299.17,295.00
             299.17,295.00 332.00,262.00 332.00,262.00
             332.00,262.00 353.96,240.00 353.96,240.00
             353.96,240.00 363.01,230.00 363.01,230.00
             363.01,230.00 413.00,180.00 413.00,180.00
             413.00,180.00 424.01,168.00 424.01,168.00
             424.01,168.00 469.00,123.00 469.00,123.00
             469.00,123.00 469.00,154.00 469.00,154.00
             469.00,158.95 468.41,165.57 470.69,169.98
             475.05,178.44 486.69,179.18 492.57,171.90
             495.32,168.48 494.99,165.10 495.00,161.00
             495.00,161.00 495.00,77.00 495.00,77.00 Z
           M 408.00,128.00
           C 382.04,115.93 348.40,109.24 320.00,105.85
             262.86,99.02 202.01,100.87 146.00,114.87
             126.48,119.75 97.83,129.43 83.00,143.09
             74.48,150.94 67.65,160.90 70.93,173.00
             74.53,186.32 88.27,196.28 100.00,202.24
             122.62,213.75 160.70,224.87 186.00,226.83
             193.53,227.41 195.93,222.75 201.00,218.09
             206.43,213.10 213.35,208.86 221.00,209.13
             237.05,209.70 243.90,226.67 251.42,231.01
             254.16,232.58 265.32,232.04 269.00,232.00
             269.00,232.00 279.00,231.09 279.00,231.09
             279.00,231.09 298.00,230.17 298.00,230.17
             301.78,229.81 306.37,230.34 309.83,228.57
             312.53,227.19 327.64,211.36 331.00,208.00
             331.00,208.00 375.17,163.00 375.17,163.00
             375.17,163.00 397.00,141.00 397.00,141.00
             401.12,136.88 405.48,133.32 408.00,128.00 Z
           M 445.00,165.00
           C 438.93,167.87 433.77,174.23 429.00,179.00
             429.00,179.00 402.00,208.00 402.00,208.00
             415.01,204.29 435.77,191.22 442.01,179.00
             444.54,174.03 444.95,170.43 445.00,165.00 Z
           M 169.00,248.00
           C 147.64,242.34 129.40,238.06 109.00,228.69
             109.00,228.69 76.00,210.00 76.00,210.00
             73.26,214.82 70.72,219.36 70.18,225.00
             68.06,246.90 97.08,262.03 114.00,268.99
             117.87,270.58 134.75,276.92 138.00,276.50
             141.57,276.04 145.32,271.64 148.00,269.28
             154.25,263.79 164.29,254.58 169.00,248.00 Z
           M 439.00,210.00
           C 439.00,210.00 423.00,219.94 423.00,219.94
             423.00,219.94 404.00,229.74 404.00,229.74
             404.00,229.74 367.00,243.28 367.00,243.28
             367.00,243.28 352.99,257.00 352.99,257.00
             352.99,257.00 335.00,275.00 335.00,275.00
             335.00,275.00 324.00,288.00 324.00,288.00
             324.00,288.00 353.00,283.00 353.00,283.00
             375.91,278.33 403.15,270.35 423.00,257.94
             435.22,250.29 447.86,237.78 444.48,222.00
             443.45,217.17 441.62,214.07 439.00,210.00 Z
           M 282.00,256.00
           C 282.00,256.00 275.00,256.00 275.00,256.00
             275.00,256.00 277.00,261.00 277.00,261.00
             277.00,261.00 282.00,256.00 282.00,256.00 Z
           M 74.00,267.00
           C 62.64,280.31 76.98,298.66 88.00,306.57
             90.44,308.32 97.17,313.12 100.00,313.19
             102.86,313.26 105.10,310.80 107.00,308.98
             111.50,304.68 117.44,298.97 121.00,294.00
             101.57,284.97 91.24,281.00 74.00,267.00 Z
           M 442.00,267.00
           C 442.00,267.00 431.00,274.96 431.00,274.96
             431.00,274.96 410.00,287.22 410.00,287.22
             376.92,303.12 341.10,309.83 305.00,314.28
             305.00,314.28 297.00,315.51 297.00,315.51
             290.69,317.44 288.47,323.51 276.00,322.96
             268.11,322.61 265.52,319.16 261.00,317.70
             258.16,316.77 254.04,317.00 251.00,317.00
             251.00,317.00 235.00,316.00 235.00,316.00
             235.00,316.00 203.00,313.58 203.00,313.58
             203.00,313.58 187.00,311.25 187.00,311.25
             184.46,310.83 180.40,309.86 178.00,310.64
             175.14,311.56 172.12,314.89 170.00,317.00
             165.05,321.92 159.01,327.40 155.00,333.00
             155.00,333.00 204.00,340.83 204.00,340.83
             204.00,340.83 258.00,343.00 258.00,343.00
             258.00,343.00 280.00,343.00 280.00,343.00
             280.00,343.00 292.00,341.96 292.00,341.96
             292.00,341.96 301.00,341.96 301.00,341.96
             331.26,338.95 354.70,335.14 384.00,326.58
             399.48,322.05 422.50,312.18 433.99,300.96
             443.85,291.32 448.29,279.96 442.00,267.00 Z
           M 220.00,271.00
           C 214.66,273.53 203.53,283.66 201.00,289.00
             201.00,289.00 222.00,290.96 222.00,290.96
             222.00,290.96 237.00,290.96 237.00,290.96
             237.00,290.96 220.00,271.00 220.00,271.00 Z
           M 86.00,328.00
           C 86.00,328.00 76.00,322.00 76.00,322.00
             71.75,328.60 68.78,335.09 71.00,343.00
             71.00,343.00 86.00,328.00 86.00,328.00 Z
           M 108.00,378.00
           C 140.37,391.73 174.19,397.80 209.00,401.17
             209.00,401.17 231.00,403.00 231.00,403.00
             231.00,403.00 282.00,403.00 282.00,403.00
             282.00,403.00 294.00,402.09 294.00,402.09
             319.74,400.33 344.92,396.97 370.00,390.63
             390.47,385.44 418.74,375.73 434.00,360.96
             443.24,352.02 449.36,338.16 441.64,326.06
             440.74,324.66 439.70,323.27 437.90,323.10
             435.05,322.85 425.94,329.78 423.00,331.55
             404.20,342.89 384.95,349.33 364.00,355.29
             319.39,367.97 254.03,371.20 208.00,365.72
             191.57,363.76 175.06,361.14 159.00,357.13
             155.15,356.17 138.52,351.15 136.00,351.78
             132.95,352.54 129.34,356.74 127.00,358.91
             120.41,365.03 113.28,370.63 108.00,378.00 Z" />
</svg>
