<?xml version="1.0" encoding="UTF-8" standalone="no"?>
<!DOCTYPE svg PUBLIC "-//W3C//DTD SVG 20010904//EN"
              "http://www.w3.org/TR/2001/REC-SVG-20010904/DTD/svg10.dtd">

<svg xmlns="http://www.w3.org/2000/svg"
     width="180.6mm" height="180.6mm"
     viewBox="0 0 512 512">
  <path id="Selection"
        fill="#000000" stroke="black" stroke-width="1"
        d="M 41.00,0.09
           C 41.00,0.09 83.00,0.09 83.00,0.09
             83.00,0.09 163.00,0.09 163.00,0.09
             163.00,0.09 408.00,0.09 408.00,0.09
             408.00,0.09 463.00,0.09 463.00,0.09
             483.27,0.03 501.73,13.00 508.94,32.00
             511.45,38.62 511.99,42.00 512.00,49.00
             512.00,49.00 512.00,406.00 512.00,406.00
             512.00,406.00 512.00,463.00 512.00,463.00
             511.97,483.27 499.00,501.73 480.00,508.94
             473.38,511.45 470.00,511.99 463.00,512.00
             463.00,512.00 106.00,512.00 106.00,512.00
             106.00,512.00 49.00,512.00 49.00,512.00
             28.73,511.97 10.27,499.00 3.06,480.00
             0.55,473.38 0.01,470.00 0.00,463.00
             0.00,463.00 0.00,114.00 0.00,114.00
             0.00,114.00 0.00,69.00 0.00,69.00
             0.00,69.00 0.00,48.00 0.00,48.00
             0.08,30.71 10.82,13.94 26.00,5.79
             30.84,3.20 35.67,1.65 41.00,0.09 Z
           M 60.00,38.07
           C 45.97,41.04 38.17,50.84 38.00,65.00
             38.00,65.00 38.00,218.00 38.00,218.00
             38.00,218.00 38.00,415.00 38.00,415.00
             38.00,415.00 38.00,437.00 38.00,437.00
             38.00,452.42 37.96,467.14 56.00,472.78
             60.07,474.05 62.84,473.99 67.00,474.00
             67.00,474.00 380.00,474.00 380.00,474.00
             380.00,474.00 447.00,474.00 447.00,474.00
             464.90,473.79 473.97,462.13 474.00,445.00
             474.00,445.00 474.00,132.00 474.00,132.00
             474.00,132.00 474.00,65.00 474.00,65.00
             473.79,47.10 462.13,38.03 445.00,38.07
             445.00,38.07 190.00,38.07 190.00,38.07
             190.00,38.07 105.00,38.07 105.00,38.07
             105.00,38.07 60.00,38.07 60.00,38.07 Z
           M 244.00,142.00
           C 244.00,134.75 242.60,117.61 246.70,112.11
             251.57,105.57 266.78,105.41 267.00,121.00
             267.00,121.00 267.00,142.00 267.00,142.00
             281.02,143.14 299.51,148.92 311.00,157.04
             317.16,161.40 322.76,166.82 320.20,175.00
             315.14,191.18 298.50,177.20 290.00,173.31
             273.28,165.64 249.05,162.66 232.00,170.78
             220.02,176.49 210.12,187.96 211.18,202.00
             212.17,214.93 220.19,223.08 232.00,227.30
             256.20,235.95 283.64,234.75 306.00,249.09
             313.26,253.75 318.76,259.21 322.62,267.00
             329.28,280.40 328.19,300.97 321.10,314.00
             316.73,322.03 309.63,329.18 302.00,334.14
             291.51,340.95 279.31,344.34 267.00,346.00
             267.00,346.00 267.00,366.00 267.00,366.00
             266.98,369.24 267.13,372.12 265.26,374.96
             261.19,381.14 251.22,381.96 246.70,375.89
             242.60,370.39 244.00,353.25 244.00,346.00
             226.57,346.00 209.53,341.72 194.00,333.74
             185.95,329.61 178.82,325.27 180.19,315.00
             180.59,311.94 181.72,309.44 184.13,307.43
             190.77,301.88 197.93,307.49 204.00,310.68
             204.00,310.68 212.00,314.28 212.00,314.28
             229.12,321.61 253.89,324.75 272.00,319.84
             283.29,316.78 293.86,309.88 297.07,298.00
             301.02,283.41 293.26,272.12 280.00,266.43
             255.74,256.02 218.60,257.92 198.00,238.91
             184.11,226.09 182.80,214.78 183.00,197.00
             183.18,181.92 190.83,168.01 202.00,158.18
             214.00,147.62 228.60,144.04 244.00,142.00 Z" />
</svg>
