<svg width="80" height="80" viewBox="0 0 80 80" fill="none" xmlns="http://www.w3.org/2000/svg">
<rect width="80" height="80" rx="8" fill="black"/>
<rect x="6" y="6" width="68" height="68" rx="4" fill="white"/>
<path d="M39.95 59.49C39.41 59.49 38.96 59.31 38.6 58.95C38.27 58.59 38.105 58.155 38.105 57.645V53.37L39.005 54.225C36.905 54.195 35.015 53.925 33.335 53.415C31.655 52.875 30.245 52.23 29.105 51.48C28.685 51.21 28.385 50.865 28.205 50.445C28.025 50.025 27.965 49.605 28.025 49.185C28.115 48.765 28.295 48.405 28.565 48.105C28.835 47.805 29.165 47.625 29.555 47.565C29.945 47.505 30.395 47.625 30.905 47.925C31.835 48.525 32.99 49.065 34.37 49.545C35.78 50.025 37.49 50.265 39.5 50.265C41.12 50.265 42.44 50.055 43.46 49.635C44.51 49.215 45.275 48.645 45.755 47.925C46.265 47.205 46.52 46.365 46.52 45.405C46.52 44.625 46.34 43.95 45.98 43.38C45.65 42.81 45.095 42.33 44.315 41.94C43.535 41.52 42.5 41.175 41.21 40.905L36.575 39.915C33.845 39.315 31.805 38.325 30.455 36.945C29.135 35.565 28.475 33.75 28.475 31.5C28.475 29.73 28.895 28.155 29.735 26.775C30.605 25.395 31.805 24.3 33.335 23.49C34.895 22.68 36.71 22.215 38.78 22.095L38.105 22.725V18.63C38.105 18.12 38.27 17.685 38.6 17.325C38.96 16.965 39.41 16.785 39.95 16.785C40.46 16.785 40.895 16.965 41.255 17.325C41.615 17.685 41.795 18.12 41.795 18.63V22.725L41.03 22.095C42.41 22.125 43.88 22.41 45.44 22.95C47 23.46 48.335 24.195 49.445 25.155C49.805 25.455 50.03 25.8 50.12 26.19C50.24 26.58 50.24 26.955 50.12 27.315C50.03 27.675 49.85 27.975 49.58 28.215C49.31 28.455 48.965 28.59 48.545 28.62C48.125 28.65 47.675 28.5 47.195 28.17C46.235 27.51 45.17 26.985 44 26.595C42.86 26.205 41.495 26.01 39.905 26.01C37.805 26.01 36.14 26.505 34.91 27.495C33.68 28.485 33.065 29.775 33.065 31.365C33.065 32.565 33.44 33.54 34.19 34.29C34.94 35.01 36.2 35.565 37.97 35.955L42.695 36.945C45.575 37.575 47.705 38.55 49.085 39.87C50.465 41.19 51.155 42.945 51.155 45.135C51.155 46.845 50.72 48.36 49.85 49.68C48.98 50.97 47.78 52.005 46.25 52.785C44.75 53.535 43.01 54 41.03 54.18L41.795 53.325V57.645C41.795 58.155 41.615 58.59 41.255 58.95C40.925 59.31 40.49 59.49 39.95 59.49Z" fill="black"/>
</svg>
