<?xml version="1.0" encoding="UTF-8" standalone="no"?>
<!DOCTYPE svg PUBLIC "-//W3C//DTD SVG 20010904//EN"
              "http://www.w3.org/TR/2001/REC-SVG-20010904/DTD/svg10.dtd">

<svg xmlns="http://www.w3.org/2000/svg"
     width="180.6mm" height="180.6mm"
     viewBox="0 0 512 512">
  <path id="Selection"
        fill="#000000" stroke="black" stroke-width="1"
        d="M 89.00,17.53
           C 108.73,14.31 123.90,25.47 124.00,46.00
             124.00,46.00 124.00,100.00 124.00,100.00
             123.98,114.48 116.86,126.15 102.00,129.33
             84.32,133.11 68.22,120.13 68.00,102.00
             68.00,102.00 68.00,61.00 68.00,61.00
             68.00,45.24 65.54,30.92 81.00,20.97
             83.67,19.24 86.00,18.42 89.00,17.53 Z
           M 198.00,17.52
           C 212.58,15.20 226.92,20.87 231.56,36.00
             233.66,42.85 233.00,51.75 233.00,59.00
             233.00,59.00 233.00,99.00 233.00,99.00
             232.98,113.73 226.24,125.82 211.00,129.32
             193.21,133.40 177.09,120.12 177.00,102.00
             177.00,102.00 177.00,59.00 177.00,59.00
             177.00,54.39 176.67,41.74 177.53,38.00
             179.92,27.58 187.93,20.29 198.00,17.52 Z
           M 307.00,17.47
           C 322.26,15.34 336.17,21.12 340.70,37.00
             342.56,43.51 342.00,53.04 342.00,60.00
             342.00,60.00 342.00,97.00 342.00,97.00
             341.98,112.49 335.72,126.38 319.00,129.53
             301.33,132.87 286.09,119.90 286.00,102.00
             286.00,102.00 286.00,45.00 286.00,45.00
             286.02,31.15 293.11,20.78 307.00,17.47 Z
           M 416.00,17.47
           C 435.07,14.80 449.97,24.89 450.00,45.00
             450.00,45.00 450.00,101.00 450.00,101.00
             449.98,115.82 442.05,126.82 427.00,129.54
             414.89,131.72 402.11,125.21 396.91,114.00
             393.09,105.74 394.00,94.04 394.00,85.00
             394.00,85.00 394.00,60.00 394.00,60.00
             394.00,60.00 394.00,48.00 394.00,48.00
             394.07,33.20 400.87,21.07 416.00,17.47 Z
           M 468.00,71.00
           C 492.38,72.14 511.96,95.23 512.00,119.00
             512.00,119.00 512.00,272.00 512.00,272.00
             512.00,272.00 512.00,460.00 512.00,460.00
             511.95,492.49 485.13,509.95 455.00,510.00
             455.00,510.00 104.00,510.00 104.00,510.00
             104.00,510.00 71.00,510.00 71.00,510.00
             46.46,510.00 26.22,510.67 9.53,489.00
             6.97,485.68 4.56,480.93 3.06,477.00
             0.55,470.38 0.01,467.00 0.00,460.00
             0.00,460.00 0.00,119.00 0.00,119.00
             0.13,90.99 23.60,70.08 51.00,70.00
             51.00,70.00 51.00,91.00 51.00,91.00
             51.00,105.33 50.16,114.38 58.90,127.00
             75.18,150.50 106.46,153.75 127.00,133.96
             130.96,130.15 133.71,126.94 136.19,122.00
             143.36,107.71 141.00,86.00 141.00,70.00
             141.00,70.00 160.00,70.00 160.00,70.00
             160.00,70.00 160.00,102.00 160.00,102.00
             160.06,139.21 204.03,160.60 233.00,136.67
             254.29,119.09 250.00,94.51 250.00,70.00
             250.00,70.00 268.00,70.00 268.00,70.00
             268.00,89.62 265.26,111.06 277.21,128.00
             296.73,155.68 338.52,151.98 353.73,122.00
             361.16,107.36 359.00,86.38 359.00,70.00
             359.00,70.00 377.00,70.00 377.00,70.00
             377.00,85.39 375.01,107.39 381.81,121.00
             397.89,153.16 440.27,155.87 460.25,126.00
             470.41,110.82 468.00,88.66 468.00,71.00 Z
           M 455.00,179.00
           C 455.00,179.00 64.00,179.00 64.00,179.00
             64.00,179.00 64.00,381.00 64.00,381.00
             64.00,381.00 64.00,405.00 64.00,405.00
             64.00,420.01 62.95,434.97 81.00,440.56
             85.59,441.98 88.31,441.99 93.00,442.00
             93.00,442.00 371.00,442.00 371.00,442.00
             371.00,442.00 428.00,442.00 428.00,442.00
             446.40,441.77 454.97,429.24 455.00,412.00
             455.00,412.00 455.00,179.00 455.00,179.00 Z" />
</svg>
