<?xml version="1.0" encoding="UTF-8" standalone="no"?>
<!DOCTYPE svg PUBLIC "-//W3C//DTD SVG 20010904//EN"
              "http://www.w3.org/TR/2001/REC-SVG-20010904/DTD/svg10.dtd">

<svg xmlns="http://www.w3.org/2000/svg"
     width="180.6mm" height="180.6mm"
     viewBox="0 0 512 512">
  <path id="Selection"
        fill="#000000" stroke="black" stroke-width="1"
        d="M 59.04,53.74
           C 64.35,53.51 86.48,58.62 93.00,60.12
             93.00,60.12 150.00,72.20 150.00,72.20
             150.00,72.20 171.00,76.65 171.00,76.65
             174.19,77.39 178.06,78.03 179.82,81.14
             181.77,84.58 180.12,87.93 178.38,91.00
             178.38,91.00 164.86,112.00 164.86,112.00
             147.49,136.33 133.55,150.20 109.00,167.28
             104.67,170.30 89.53,180.48 85.00,180.68
             82.49,180.79 80.38,179.84 78.93,177.77
             77.20,175.31 74.08,159.08 73.21,155.00
             73.21,155.00 57.12,79.00 57.12,79.00
             56.02,74.22 52.35,61.20 54.49,57.13
             55.72,54.79 56.79,54.56 59.04,53.74 Z
           M 189.04,92.02
           C 197.19,89.35 201.69,96.69 207.00,102.00
             207.00,102.00 245.00,140.00 245.00,140.00
             245.00,140.00 389.00,284.00 389.00,284.00
             389.00,284.00 423.00,318.00 423.00,318.00
             426.69,321.69 433.87,327.19 432.67,333.00
             431.95,336.47 428.42,339.56 426.00,342.00
             426.00,342.00 412.00,356.00 412.00,356.00
             412.00,356.00 356.00,412.00 356.00,412.00
             356.00,412.00 340.00,427.98 340.00,427.98
             337.18,430.68 334.26,433.55 330.00,432.67
             325.60,431.76 317.44,422.44 314.00,419.00
             314.00,419.00 278.00,383.00 278.00,383.00
             278.00,383.00 143.00,248.00 143.00,248.00
             143.00,248.00 103.00,208.00 103.00,208.00
             99.05,204.05 90.05,197.10 91.33,191.00
             92.23,186.72 96.61,184.47 100.00,182.32
             100.00,182.32 122.00,167.37 122.00,167.37
             139.80,154.13 153.31,140.76 166.63,123.00
             166.63,123.00 178.58,106.00 178.58,106.00
             181.67,101.07 184.30,95.50 189.04,92.02 Z
           M 441.00,344.02
           C 449.60,341.25 455.48,350.48 461.00,356.00
             478.19,373.19 486.30,380.53 486.00,406.00
             485.75,426.85 473.60,437.40 460.00,451.00
             451.36,459.64 437.30,475.40 427.00,480.63
             417.59,485.40 410.28,486.12 400.00,486.00
             379.64,485.76 369.30,474.30 356.00,461.00
             352.68,457.68 344.23,450.33 343.33,446.00
             342.45,441.74 345.32,438.82 348.02,436.00
             348.02,436.00 365.00,419.00 365.00,419.00
             365.00,419.00 415.00,369.00 415.00,369.00
             420.85,363.15 435.18,347.89 441.00,344.02 Z" />
</svg>
