<?xml version="1.0" encoding="UTF-8" standalone="no"?>
<!DOCTYPE svg PUBLIC "-//W3C//DTD SVG 20010904//EN"
              "http://www.w3.org/TR/2001/REC-SVG-20010904/DTD/svg10.dtd">

<svg xmlns="http://www.w3.org/2000/svg"
     width="180.6mm" height="180.6mm"
     viewBox="0 0 512 512">
  <path id="Selection"
        fill="#000000" stroke="black" stroke-width="1"
        d="M 357.00,3.42
           C 365.36,2.41 384.37,4.86 393.00,6.60
             456.33,19.34 504.93,73.55 510.08,138.00
             510.08,138.00 511.00,148.00 511.00,148.00
             511.43,185.24 499.71,220.37 475.56,249.00
             475.56,249.00 421.00,304.00 421.00,304.00
             421.00,304.00 316.00,409.00 316.00,409.00
             316.00,409.00 271.00,454.00 271.00,454.00
             259.33,465.67 249.84,476.15 236.00,485.48
             209.53,503.32 179.75,511.37 148.00,511.00
             135.20,510.85 117.16,507.42 105.00,503.33
             84.42,496.41 65.93,485.75 50.00,470.91
             4.94,428.93 -8.67,361.63 14.45,305.00
             26.08,276.51 41.82,261.18 63.00,240.00
             63.00,240.00 105.00,198.00 105.00,198.00
             105.00,198.00 206.00,97.00 206.00,97.00
             206.00,97.00 239.00,64.00 239.00,64.00
             260.83,42.17 275.60,26.42 305.00,14.45
             317.81,9.24 331.28,5.93 345.00,4.28
             345.00,4.28 357.00,3.42 357.00,3.42 Z
           M 343.00,37.28
           C 327.87,39.51 313.59,42.99 300.00,50.31
             281.20,60.43 273.70,69.30 259.00,84.00
             259.00,84.00 220.00,123.00 220.00,123.00
             220.00,123.00 193.00,150.00 193.00,150.00
             190.47,152.54 184.78,156.98 186.17,161.00
             186.94,163.24 191.22,167.22 193.00,169.00
             193.00,169.00 208.00,184.00 208.00,184.00
             208.00,184.00 261.00,237.00 261.00,237.00
             261.00,237.00 331.00,307.00 331.00,307.00
             331.00,307.00 348.00,323.98 348.00,323.98
             350.14,326.03 352.72,328.97 356.00,327.83
             358.69,326.90 367.46,317.54 370.00,315.00
             370.00,315.00 403.00,282.00 403.00,282.00
             403.00,282.00 429.00,256.00 429.00,256.00
             451.92,233.08 467.69,215.84 474.40,183.00
             475.82,176.04 476.99,169.11 477.00,162.00
             477.03,140.12 474.60,124.07 465.11,104.00
             459.44,92.00 451.33,81.35 442.00,72.00
             415.15,45.11 380.63,33.78 343.00,37.28 Z" />
</svg>
