<?xml version="1.0" encoding="UTF-8" standalone="no"?>
<!DOCTYPE svg PUBLIC "-//W3C//DTD SVG 20010904//EN"
              "http://www.w3.org/TR/2001/REC-SVG-20010904/DTD/svg10.dtd">

<svg xmlns="http://www.w3.org/2000/svg"
     width="180.6mm" height="180.6mm"
     viewBox="0 0 512 512">
  <path id="Selection"
        fill="#000000" stroke="black" stroke-width="1"
        d="M 162.00,0.21
           C 162.00,0.21 194.00,0.21 194.00,0.21
             200.73,0.08 212.22,2.04 219.00,3.40
             271.32,13.87 316.34,48.23 341.69,95.00
             357.41,123.99 363.38,155.32 363.00,188.00
             362.76,207.84 357.34,230.54 350.19,249.00
             350.19,249.00 341.66,268.00 341.66,268.00
             341.41,269.68 341.65,270.55 342.52,272.00
             343.72,273.99 351.81,281.81 354.00,284.00
             354.00,284.00 377.00,307.00 377.00,307.00
             377.00,307.00 452.00,382.00 452.00,382.00
             469.62,399.62 489.91,414.30 491.82,441.00
             492.06,444.40 490.74,452.59 489.84,456.00
             481.74,486.87 446.51,500.44 419.00,485.68
             408.37,479.98 387.56,457.56 378.00,448.00
             378.00,448.00 303.00,373.00 303.00,373.00
             303.00,373.00 283.00,353.00 283.00,353.00
             280.93,350.93 273.94,343.68 272.00,342.52
             270.55,341.65 269.68,341.41 268.00,341.66
             268.00,341.66 249.00,350.19 249.00,350.19
             231.08,357.15 207.26,362.91 188.00,363.00
             149.18,363.18 118.51,356.05 85.00,335.80
             70.88,327.26 57.80,316.28 46.84,304.00
             24.19,278.66 9.57,250.39 3.00,217.00
             1.50,209.35 0.01,199.74 0.00,192.00
             0.00,192.00 0.00,169.00 0.00,169.00
             0.45,131.03 21.06,86.80 46.17,59.00
             71.95,30.46 105.58,11.68 143.00,3.42
             143.00,3.42 162.00,0.21 162.00,0.21 Z
           M 171.00,60.28
           C 171.00,60.28 152.00,63.47 152.00,63.47
             125.14,70.16 101.06,86.00 84.24,108.00
             42.81,162.15 55.90,245.56 114.00,282.56
             137.11,297.29 153.28,300.68 180.00,302.68
             186.98,303.20 203.87,300.61 211.00,298.87
             259.97,286.92 295.59,245.80 301.90,196.00
             301.90,196.00 301.90,188.00 301.90,188.00
             301.90,188.00 302.82,181.00 302.82,181.00
             302.82,181.00 302.09,174.00 302.09,174.00
             298.68,125.14 270.80,86.25 225.00,68.00
             209.21,61.71 187.94,58.71 171.00,60.28 Z" />
</svg>
