<svg width="80" height="80" viewBox="0 0 80 80" fill="none" xmlns="http://www.w3.org/2000/svg">
<g clip-path="url(#clip0_108_530)">
<path d="M13.3333 22H26.6667V73.3333C26.6667 77.0152 23.6819 80 20 80C16.3181 80 13.3333 77.0152 13.3333 73.3333V22Z" fill="black"/>
<path d="M18.4152 2.05873C19.2158 1.01872 20.7842 1.01872 21.5848 2.05873L34.8418 19.28C35.8542 20.5951 34.9166 22.5 33.257 22.5H6.74305C5.08338 22.5 4.14585 20.5951 5.15824 19.28L18.4152 2.05873Z" fill="black"/>
<path d="M66.6667 58H53.3333L53.3333 6.66667C53.3333 2.98477 56.3181 0 60 0C63.6819 0 66.6667 2.98477 66.6667 6.66667V58Z" fill="black"/>
<path d="M61.5848 77.9413C60.7842 78.9813 59.2158 78.9813 58.4152 77.9413L45.1582 60.72C44.1458 59.4049 45.0834 57.5 46.743 57.5H73.2569C74.9166 57.5 75.8542 59.4049 74.8418 60.72L61.5848 77.9413Z" fill="black"/>
</g>
<defs>
<clipPath id="clip0_108_530">
<rect width="80" height="80" fill="white"/>
</clipPath>
</defs>
</svg>
