<?xml version="1.0" encoding="UTF-8" standalone="no"?>
<!DOCTYPE svg PUBLIC "-//W3C//DTD SVG 20010904//EN"
              "http://www.w3.org/TR/2001/REC-SVG-20010904/DTD/svg10.dtd">

<svg xmlns="http://www.w3.org/2000/svg"
     width="180.6mm" height="180.6mm"
     viewBox="0 0 512 512">
  <path id="Selection"
        fill="#000000" stroke="black" stroke-width="1"
        d="M 211.00,21.00
           C 211.37,13.52 214.26,6.46 221.01,2.53
             227.34,-1.15 238.63,0.00 246.00,0.00
             246.00,0.00 281.00,0.64 281.00,0.64
             286.86,2.33 292.27,7.32 294.44,13.00
             295.43,15.60 295.77,18.25 296.00,21.00
             296.00,21.00 374.00,21.00 374.00,21.00
             394.20,21.00 408.02,18.61 425.00,32.47
             444.91,48.72 443.00,68.27 443.00,91.00
             443.00,101.35 446.03,115.87 433.00,119.29
             430.02,120.07 427.04,120.00 424.00,120.00
             424.00,120.00 148.00,120.00 148.00,120.00
             148.00,120.00 82.00,120.00 82.00,120.00
             69.54,119.94 64.02,117.20 64.00,104.00
             64.00,104.00 64.00,68.00 64.00,68.00
             64.31,42.30 87.83,21.04 113.00,21.00
             113.00,21.00 211.00,21.00 211.00,21.00 Z
           M 85.00,133.00
           C 85.00,133.00 422.00,133.00 422.00,133.00
             422.00,133.00 422.00,353.00 422.00,353.00
             422.00,353.00 422.00,463.00 422.00,463.00
             421.69,489.55 399.60,511.96 373.00,512.00
             373.00,512.00 134.00,512.00 134.00,512.00
             107.25,511.96 85.04,489.75 85.00,463.00
             85.00,463.00 85.00,133.00 85.00,133.00 Z
           M 161.00,168.18
           C 140.63,173.21 141.00,187.17 141.00,204.00
             141.00,204.00 141.00,228.00 141.00,228.00
             141.00,228.00 141.00,411.00 141.00,411.00
             141.00,411.00 141.00,433.00 141.00,433.00
             141.00,444.43 139.37,454.75 148.44,463.53
             151.14,466.15 154.37,468.16 158.00,469.21
             160.90,470.05 164.01,470.06 167.00,469.99
             184.72,469.56 190.98,455.55 191.00,440.00
             191.00,440.00 191.00,229.00 191.00,229.00
             191.00,229.00 191.00,207.00 191.00,207.00
             191.00,207.00 191.00,196.00 191.00,196.00
             190.82,181.15 182.95,168.68 167.00,168.18
             167.00,168.18 161.00,168.18 161.00,168.18 Z
           M 253.00,168.49
           C 232.14,172.38 232.00,186.81 232.00,204.00
             232.00,204.00 232.00,227.00 232.00,227.00
             232.00,227.00 232.00,410.00 232.00,410.00
             232.00,410.00 232.00,432.00 232.00,432.00
             232.00,443.68 230.22,453.68 239.10,462.96
             241.95,465.93 245.02,468.06 249.00,469.21
             251.89,470.05 255.01,470.06 258.00,469.99
             275.34,469.56 281.98,456.52 282.00,441.00
             282.00,441.00 282.00,229.00 282.00,229.00
             282.00,229.00 282.00,206.00 282.00,206.00
             282.00,190.22 282.60,173.20 263.00,168.49
             259.39,167.85 256.63,167.94 253.00,168.49 Z
           M 344.00,168.49
           C 340.88,168.91 338.85,169.38 336.00,170.91
             321.07,178.97 323.00,193.69 323.00,208.00
             323.00,208.00 323.00,234.00 323.00,234.00
             323.00,234.00 323.00,442.00 323.00,442.00
             323.01,449.93 324.28,456.99 330.10,462.91
             341.28,474.26 361.65,471.92 369.64,458.00
             372.75,452.58 372.99,448.03 373.00,442.00
             373.00,442.00 373.00,230.00 373.00,230.00
             373.00,230.00 373.00,206.00 373.00,206.00
             373.00,190.08 373.92,173.25 354.00,168.49
             350.38,167.85 347.64,167.94 344.00,168.49 Z" />
</svg>
