<svg width="80" height="80" viewBox="0 0 80 80" fill="none" xmlns="http://www.w3.org/2000/svg">
<circle cx="40" cy="40" r="39" fill="black"/>
<circle cx="40" cy="40" r="36.075" fill="white"/>
<circle cx="39.4507" cy="39.4507" r="25.2676" fill="black"/>
<circle cx="39.4507" cy="39.4507" r="23.0704" fill="white"/>
<path d="M68.0141 44.3843H72.9578V15.2817L68.0141 44.3843Z" fill="black"/>
<path d="M68.9578 72.9577C68.9578 75.1669 70.7486 76.9577 72.9578 76.9577C75.1669 76.9577 76.9578 75.1669 76.9578 72.9577H68.9578ZM68.0141 44.3843L64.0706 43.7144C63.8733 44.8757 64.198 46.065 64.958 46.965C65.718 47.865 66.8361 48.3843 68.0141 48.3843V44.3843ZM72.9578 15.2817H76.9578C76.9578 13.2028 75.3654 11.4705 73.2939 11.2958C71.2224 11.1211 69.3624 12.5623 69.0143 14.6118L72.9578 15.2817ZM76.9578 72.9577V44.3843H68.9578V72.9577H76.9578ZM72.9578 40.3843H68.0141V48.3843H72.9578V40.3843ZM71.9576 45.0542L76.9013 15.9516L69.0143 14.6118L64.0706 43.7144L71.9576 45.0542ZM68.9578 15.2817V44.3843H76.9578V15.2817H68.9578Z" fill="black"/>
<path d="M68.0141 44.3843H72.9578V15.2817L68.0141 44.3843Z" fill="#737373"/>
<path d="M70.9578 72.9577C70.9578 74.0623 71.8532 74.9577 72.9578 74.9577C74.0623 74.9577 74.9578 74.0623 74.9578 72.9577H70.9578ZM68.0141 44.3843L66.0423 44.0493C65.9437 44.63 66.106 45.2246 66.486 45.6746C66.8661 46.1246 67.4251 46.3843 68.0141 46.3843V44.3843ZM72.9578 15.2817H74.9578C74.9578 14.2423 74.1616 13.3761 73.1258 13.2888C72.0901 13.2014 71.1601 13.922 70.986 14.9467L72.9578 15.2817ZM74.9578 72.9577V44.3843H70.9578V72.9577H74.9578ZM72.9578 42.3843H68.0141V46.3843H72.9578V42.3843ZM69.9859 44.7192L74.9295 15.6166L70.986 14.9467L66.0423 44.0493L69.9859 44.7192ZM70.9578 15.2817V44.3843H74.9578V15.2817H70.9578Z" fill="#737373"/>
<path d="M6.52113 71.8592C6.52113 74.0683 8.31199 75.8592 10.5211 75.8592C12.7303 75.8592 14.5211 74.0683 14.5211 71.8592H6.52113ZM19.9532 16.7838C19.5693 14.6082 17.4945 13.1559 15.3189 13.5398C13.1434 13.9237 11.691 15.9985 12.075 18.174L19.9532 16.7838ZM14.5211 16.3803C14.5211 14.1712 12.7303 12.3803 10.5211 12.3803C8.31199 12.3803 6.52113 14.1712 6.52113 16.3803H14.5211ZM8.9673 18.174C9.35122 15.9985 7.89884 13.9237 5.72331 13.5398C3.54779 13.1559 1.47295 14.6082 1.08904 16.7838L8.9673 18.174ZM14.5211 71.8592V30.662H6.52113V71.8592H14.5211ZM10.5211 30.662C9.95544 26.7022 9.95663 26.702 9.9578 26.7019C9.95817 26.7018 9.95933 26.7016 9.96008 26.7015C9.96157 26.7013 9.96301 26.7011 9.9644 26.7009C9.96717 26.7005 9.96973 26.7002 9.97209 26.6999C9.9768 26.6992 9.98069 26.6987 9.98377 26.6983C9.98993 26.6975 9.99291 26.6971 9.99288 26.6971C9.99276 26.6971 9.98088 26.6986 9.95858 26.7008C9.9134 26.7052 9.82944 26.7124 9.71699 26.7174C9.48302 26.7278 9.17495 26.7265 8.85997 26.6894C8.0516 26.5943 8.05649 26.3852 8.22817 26.6141L1.82817 31.4141C3.64774 33.8402 6.39911 34.4551 7.92524 34.6346C8.77752 34.7349 9.53371 34.7335 10.0722 34.7096C10.346 34.6974 10.5753 34.6788 10.7468 34.6618C10.8329 34.6533 10.9052 34.6451 10.9622 34.6382C10.9907 34.6347 11.0155 34.6315 11.0363 34.6287C11.0467 34.6274 11.0562 34.6261 11.0646 34.6249C11.0688 34.6243 11.0728 34.6238 11.0765 34.6233C11.0783 34.623 11.0801 34.6228 11.0818 34.6225C11.0827 34.6224 11.0839 34.6222 11.0844 34.6221C11.0856 34.622 11.0868 34.6218 10.5211 30.662ZM19.2141 31.4141C19.8825 30.5229 20.2019 29.5439 20.375 28.8282C20.5597 28.0649 20.6532 27.275 20.7008 26.5451C20.796 25.0861 20.7293 23.4974 20.6196 22.1078C20.5082 20.6957 20.3424 19.3734 20.2064 18.4118C20.1379 17.9283 20.0761 17.5294 20.0307 17.248C20.008 17.1072 19.9894 16.9954 19.9761 16.9168C19.9694 16.8774 19.9641 16.8463 19.9602 16.824C19.9583 16.8128 19.9567 16.8039 19.9556 16.7971C19.955 16.7938 19.9545 16.791 19.9541 16.7887C19.9539 16.7876 19.9537 16.7867 19.9536 16.7858C19.9535 16.7854 19.9534 16.7849 19.9534 16.7847C19.9533 16.7842 19.9532 16.7838 16.0141 17.4789C12.075 18.174 12.0749 18.1737 12.0748 18.1733C12.0748 18.1733 12.0748 18.173 12.0747 18.1728C12.0747 18.1726 12.0747 18.1724 12.0747 18.1725C12.0747 18.1725 12.0748 18.1731 12.075 18.1742C12.0754 18.1765 12.0762 18.1809 12.0773 18.1875C12.0796 18.2006 12.0833 18.2223 12.0883 18.2519C12.0983 18.3111 12.1135 18.402 12.1326 18.5208C12.171 18.7587 12.225 19.1065 12.2853 19.5327C12.4067 20.3907 12.5499 21.5403 12.6444 22.7374C12.7407 23.9569 12.7771 25.1147 12.7178 26.0245C12.6881 26.479 12.64 26.7791 12.5994 26.947C12.5472 27.1626 12.5577 26.956 12.8141 26.6141L19.2141 31.4141ZM10.5211 30.662C9.95544 34.6218 9.95666 34.622 9.95789 34.6221C9.95832 34.6222 9.95957 34.6224 9.96043 34.6225C9.96216 34.6228 9.96395 34.623 9.9658 34.6233C9.96951 34.6238 9.97347 34.6243 9.97768 34.6249C9.9861 34.6261 9.99552 34.6274 10.0059 34.6287C10.0267 34.6315 10.0515 34.6347 10.08 34.6382C10.1371 34.6451 10.2094 34.6533 10.2955 34.6618C10.467 34.6788 10.6963 34.6974 10.9701 34.7096C11.5086 34.7335 12.2647 34.7349 13.117 34.6346C14.6432 34.4551 17.3945 33.8402 19.2141 31.4141L12.8141 26.6141C12.9858 26.3852 12.9907 26.5943 12.1823 26.6894C11.8673 26.7265 11.5592 26.7278 11.3253 26.7174C11.2128 26.7124 11.1289 26.7052 11.0837 26.7008C11.0614 26.6986 11.0495 26.6971 11.0494 26.6971C11.0493 26.6971 11.0523 26.6975 11.0585 26.6983C11.0616 26.6987 11.0655 26.6992 11.0702 26.6999C11.0725 26.7002 11.0751 26.7005 11.0779 26.7009C11.0792 26.7011 11.0807 26.7013 11.0822 26.7015C11.0829 26.7016 11.0841 26.7018 11.0845 26.7019C11.0856 26.702 11.0868 26.7022 10.5211 30.662ZM14.5211 30.662V16.3803H6.52113V30.662H14.5211ZM8.22817 26.6141C8.48458 26.956 8.49503 27.1626 8.44288 26.947C8.40226 26.7791 8.35413 26.479 8.32449 26.0245C8.26515 25.1147 8.30153 23.9569 8.39781 22.7374C8.49231 21.5403 8.63557 20.3907 8.75698 19.5328C8.81729 19.1065 8.87129 18.7587 8.90963 18.5209C8.92877 18.4021 8.94395 18.3111 8.95397 18.2519C8.95898 18.2223 8.96269 18.2006 8.96497 18.1875C8.9661 18.1809 8.96688 18.1765 8.96728 18.1742C8.96747 18.1731 8.96758 18.1725 8.96758 18.1725C8.96759 18.1725 8.96756 18.1726 8.96752 18.1728C8.96749 18.173 8.96744 18.1733 8.96743 18.1733C8.96737 18.1737 8.9673 18.174 5.02817 17.4789C1.08904 16.7838 1.08896 16.7842 1.08887 16.7847C1.08884 16.7849 1.08875 16.7854 1.08867 16.7858C1.08853 16.7866 1.08836 16.7876 1.08816 16.7887C1.08777 16.791 1.08728 16.7938 1.08669 16.7971C1.08551 16.8039 1.08395 16.8128 1.08202 16.824C1.07816 16.8463 1.07282 16.8774 1.06616 16.9168C1.05285 16.9954 1.03423 17.1072 1.01153 17.248C0.966188 17.5294 0.904322 17.9283 0.835895 18.4118C0.699821 19.3734 0.534097 20.6957 0.42262 22.1078C0.312912 23.4974 0.246293 25.0861 0.341448 26.5451C0.38905 27.275 0.482535 28.0649 0.667212 28.8282C0.840359 29.5439 1.15979 30.5229 1.82817 31.4141L8.22817 26.6141Z" fill="black"/>
<path d="M8.52113 71.8592C8.52113 72.9638 9.41656 73.8592 10.5211 73.8592C11.6257 73.8592 12.5211 72.9638 12.5211 71.8592H8.52113ZM17.9837 17.1313C17.7917 16.0436 16.7543 15.3174 15.6665 15.5093C14.5788 15.7013 13.8526 16.7387 14.0445 17.8265L17.9837 17.1313ZM12.5211 16.3803C12.5211 15.2757 11.6257 14.3803 10.5211 14.3803C9.41656 14.3803 8.52113 15.2757 8.52113 16.3803H12.5211ZM6.99774 17.8265C7.1897 16.7387 6.4635 15.7013 5.37574 15.5093C4.28798 15.3174 3.25056 16.0436 3.0586 17.1313L6.99774 17.8265ZM12.5211 71.8592V30.662H8.52113V71.8592H12.5211ZM10.5211 30.662C10.2383 28.6821 10.2389 28.682 10.2394 28.6819C10.2396 28.6819 10.2402 28.6818 10.2405 28.6818C10.2412 28.6817 10.2418 28.6816 10.2424 28.6815C10.2436 28.6814 10.2445 28.6812 10.2452 28.6811C10.2466 28.6809 10.2472 28.6809 10.2469 28.6809C10.2463 28.681 10.2424 28.6815 10.2352 28.6824C10.2209 28.6841 10.1939 28.6873 10.1556 28.691C10.0789 28.6986 9.95857 28.7087 9.80579 28.7155C9.49569 28.7293 9.07559 28.7286 8.62629 28.6757C7.63848 28.5595 6.9543 28.249 6.62817 27.8141L3.42817 30.2141C4.74993 31.9765 6.81223 32.4899 8.15892 32.6483C8.87688 32.7328 9.52104 32.7321 9.98339 32.7115C10.2168 32.7011 10.4098 32.6854 10.5497 32.6716C10.6199 32.6646 10.6771 32.6581 10.7199 32.6529C10.7413 32.6503 10.7591 32.648 10.7732 32.6461C10.7802 32.6452 10.7863 32.6444 10.7915 32.6437C10.794 32.6433 10.7964 32.643 10.7984 32.6427C10.7995 32.6425 10.8005 32.6424 10.8014 32.6423C10.8019 32.6422 10.8025 32.6421 10.8027 32.6421C10.8034 32.642 10.804 32.6419 10.5211 30.662ZM17.6141 30.2141C18.0513 29.6312 18.2882 28.9486 18.4311 28.3579C18.5798 27.7435 18.6619 27.076 18.705 26.415C18.7912 25.0932 18.7322 23.6123 18.6258 22.2652C18.5186 20.9069 18.3585 19.6278 18.2261 18.6921C18.1597 18.2229 18.0998 17.8367 18.0562 17.5662C18.0344 17.4309 18.0166 17.3243 18.0041 17.2505C17.9979 17.2136 17.993 17.1849 17.9895 17.1649C17.9878 17.1549 17.9864 17.147 17.9854 17.1414C17.9849 17.1386 17.9845 17.1364 17.9842 17.1347C17.9841 17.1338 17.984 17.1331 17.9839 17.1326C17.9838 17.1323 17.9838 17.132 17.9837 17.1318C17.9837 17.1316 17.9837 17.1313 16.0141 17.4789C14.0445 17.8265 14.0445 17.8263 14.0445 17.8262C14.0445 17.8262 14.0444 17.8261 14.0444 17.8261C14.0445 17.8261 14.0445 17.8262 14.0445 17.8265C14.0446 17.8271 14.0448 17.8283 14.0451 17.8299C14.0457 17.8333 14.0467 17.8389 14.048 17.8466C14.0507 17.8621 14.0548 17.8861 14.0602 17.9181C14.0711 17.9821 14.0871 18.0783 14.1072 18.2026C14.1472 18.4514 14.2032 18.812 14.2655 19.2525C14.3906 20.1364 14.5395 21.3291 14.6382 22.58C14.7379 23.842 14.7818 25.1075 14.7135 26.1546C14.6794 26.678 14.6199 27.1006 14.5433 27.4173C14.4609 27.7579 14.3889 27.8477 14.4141 27.8141L17.6141 30.2141ZM10.5211 30.662C10.2383 32.6419 10.2389 32.642 10.2395 32.6421C10.2398 32.6421 10.2404 32.6422 10.2409 32.6423C10.2418 32.6424 10.2428 32.6425 10.2438 32.6427C10.2459 32.643 10.2482 32.6433 10.2508 32.6437C10.2559 32.6444 10.262 32.6452 10.2691 32.6461C10.2831 32.648 10.301 32.6503 10.3224 32.6529C10.3652 32.6581 10.4224 32.6646 10.4925 32.6716C10.6325 32.6854 10.8254 32.7011 11.0589 32.7115C11.5212 32.7321 12.1654 32.7328 12.8833 32.6483C14.23 32.4899 16.2923 31.9765 17.6141 30.2141L14.4141 27.8141C14.088 28.249 13.4038 28.5595 12.416 28.6757C11.9667 28.7286 11.5466 28.7293 11.2365 28.7155C11.0837 28.7087 10.9634 28.6986 10.8866 28.691C10.8484 28.6873 10.8214 28.6841 10.807 28.6824C10.7999 28.6815 10.7959 28.681 10.7953 28.6809C10.7951 28.6809 10.7956 28.6809 10.797 28.6811C10.7978 28.6812 10.7987 28.6814 10.7998 28.6815C10.8004 28.6816 10.8011 28.6817 10.8017 28.6818C10.8021 28.6818 10.8026 28.6819 10.8028 28.6819C10.8034 28.682 10.804 28.6821 10.5211 30.662ZM12.5211 30.662V16.3803H8.52113V30.662H12.5211ZM6.62817 27.8141C6.65338 27.8477 6.58136 27.7579 6.49896 27.4173C6.42233 27.1006 6.36286 26.678 6.32873 26.1546C6.26044 25.1075 6.30437 23.842 6.40401 22.58C6.50276 21.3291 6.65163 20.1364 6.77671 19.2525C6.83905 18.812 6.89502 18.4514 6.93511 18.2026C6.95514 18.0783 6.97117 17.9822 6.98202 17.9181C6.98744 17.8861 6.99156 17.8621 6.99423 17.8466C6.99557 17.8389 6.99654 17.8333 6.99713 17.8299C6.99742 17.8283 6.99762 17.8271 6.99773 17.8265C6.99778 17.8262 6.9978 17.8261 6.99781 17.8261C6.99781 17.8261 6.99779 17.8262 6.99779 17.8262C6.99777 17.8263 6.99774 17.8265 5.02817 17.4789C3.0586 17.1313 3.05856 17.1316 3.05851 17.1318C3.05849 17.132 3.05843 17.1323 3.05838 17.1326C3.05829 17.1331 3.05816 17.1338 3.05802 17.1347C3.05772 17.1364 3.05733 17.1386 3.05684 17.1414C3.05586 17.147 3.05449 17.1549 3.05276 17.1649C3.04929 17.1849 3.04436 17.2136 3.03811 17.2505C3.02562 17.3243 3.00787 17.4309 2.98606 17.5662C2.94246 17.8367 2.88256 18.2229 2.81617 18.6921C2.68376 19.6278 2.52365 20.9069 2.41642 22.2652C2.31007 23.6123 2.25101 25.0932 2.33721 26.415C2.38032 27.076 2.46247 27.7435 2.61113 28.3579C2.75403 28.9486 2.99099 29.6312 3.42817 30.2141L6.62817 27.8141Z" fill="#737373"/>
</svg>
