<svg width="51" height="44" viewBox="0 0 51 44" fill="none" xmlns="http://www.w3.org/2000/svg">
<path d="M31.8596 40.6855C30.501 42.0441 28.2983 42.0441 26.9397 40.6855C25.5811 39.3269 25.5811 37.1242 26.9397 35.7656L46.0042 16.7011L50.9241 21.621L31.8596 40.6855Z" fill="#262626"/>
<path d="M3.5 25.2213C1.567 25.2213 0 23.6543 0 21.7213C0 19.7883 1.567 18.2213 3.5 18.2213L42 18.2213V25.2213L3.5 25.2213Z" fill="#262626"/>
<path d="M26.6811 7.3798C25.3225 6.02121 25.3225 3.81851 26.6811 2.45993C28.0397 1.10134 30.2424 1.10134 31.601 2.45993L50.6655 21.5244L45.7456 26.4443L26.6811 7.3798Z" fill="#262626"/>
</svg>
